<?xml version="1.0" encoding="UTF-8"?>
<!DOCTYPE svg PUBLIC "-//W3C//DTD SVG 1.1//EN" "http://www.w3.org/Graphics/SVG/1.1/DTD/svg11.dtd">
<svg xmlns="http://www.w3.org/2000/svg" version="1.1" width="46px" height="46px"
     style="shape-rendering:geometricPrecision; text-rendering:geometricPrecision; image-rendering:optimizeQuality; fill-rule:evenodd; clip-rule:evenodd"
     xmlns:xlink="http://www.w3.org/1999/xlink">
    <g>
        <path style="opacity:1" fill="#000001"
              d="M 13.5,-0.5 C 17.5,-0.5 21.5,-0.5 25.5,-0.5C 28.1879,1.26632 31.0212,2.93299 34,4.5C 38.1822,0.16991 41.3489,0.836577 43.5,6.5C 43.1243,8.38286 42.1243,9.88286 40.5,11C 42.067,13.9788 43.7337,16.8121 45.5,19.5C 45.5,23.5 45.5,27.5 45.5,31.5C 44.4131,37.0001 41.7465,41.6668 37.5,45.5C 35.5,45.5 33.5,45.5 31.5,45.5C 31.3433,44.1266 31.51,42.7932 32,41.5C 37.102,36.9023 38.7687,31.2356 37,24.5C 36.2178,21.9242 34.7178,19.9242 32.5,18.5C 22.4789,26.5211 13.4789,35.5211 5.5,45.5C 3.5,45.5 1.5,45.5 -0.5,45.5C -0.5,43.5 -0.5,41.5 -0.5,39.5C 9.47894,31.5211 18.4789,22.5211 26.5,12.5C 23.7348,8.9522 20.0681,7.28553 15.5,7.5C 10.6316,7.43413 6.6316,9.26747 3.5,13C 2.20677,13.49 0.873441,13.6567 -0.5,13.5C -0.5,11.5 -0.5,9.5 -0.5,7.5C 3.33323,3.25353 7.99989,0.586867 13.5,-0.5 Z"/>
    </g>
    <g>
        <path style="opacity:1" fill="#4d4131"
              d="M 37.5,3.5 C 41.9047,4.62545 42.4047,6.62545 39,9.5C 35.6405,7.79836 35.1405,5.79836 37.5,3.5 Z"/>
    </g>
    <g>
        <path style="opacity:1" fill="#747474"
              d="M 31.5,15.5 C 30.5,15.1667 29.8333,14.5 29.5,13.5C 26.7127,7.76713 22.046,5.10047 15.5,5.5C 9.97089,5.18116 5.47089,7.18116 2,11.5C 1.73084,8.72024 2.89751,6.55358 5.5,5C 22.8764,-1.9009 35.3764,3.26577 43,20.5C 43.8494,26.3388 43.1827,32.0054 41,37.5C 39.516,41.0172 37.016,42.8505 33.5,43C 40.0693,36.0554 41.2359,28.2221 37,19.5C 35.549,17.5359 33.7157,16.2026 31.5,15.5 Z"/>
    </g>
    <g>
        <path style="opacity:1" fill="#4c4132"
              d="M 29.5,13.5 C 29.8333,14.5 30.5,15.1667 31.5,15.5C 22.0326,24.1347 13.0326,33.3014 4.5,43C 3.55198,43.4828 2.55198,43.6495 1.5,43.5C 1.35055,42.448 1.51722,41.448 2,40.5C 11.6986,31.9674 20.8653,22.9674 29.5,13.5 Z"/>
    </g>
</svg>
